solid 
facet normal -1 -0 -0
 outer loop
  vertex -1 -1 -0.02
  vertex -1 -1 0.02
  vertex -1 1 0.02
 endloop
endfacet
facet normal -1 -0 0
 outer loop
  vertex -1 -1 -0.02
  vertex -1 1 0.02
  vertex -1 1 -0.02
 endloop
endfacet
facet normal 0 1 0
 outer loop
  vertex -1 1 -0.02
  vertex -1 1 0.02
  vertex 1 1 0.02
 endloop
endfacet
facet normal 0 1 -0
 outer loop
  vertex -1 1 -0.02
  vertex 1 1 0.02
  vertex 1 1 -0.02
 endloop
endfacet
facet normal 1 -0 0
 outer loop
  vertex 1 1 -0.02
  vertex 1 1 0.02
  vertex 1 -1 0.02
 endloop
endfacet
facet normal 1 -0 0
 outer loop
  vertex 1 1 -0.02
  vertex 1 -1 0.02
  vertex 1 -1 -0.02
 endloop
endfacet
facet normal 0 -1 0
 outer loop
  vertex 1 -1 -0.02
  vertex 1 -1 0.02
  vertex -1 -1 0.02
 endloop
endfacet
facet normal 0 -1 0
 outer loop
  vertex 1 -1 -0.02
  vertex -1 -1 0.02
  vertex -1 -1 -0.02
 endloop
endfacet
facet normal 0 0 -1
 outer loop
  vertex 1 1 -0.02
  vertex 0.17677669 0.17677669 -0.02
  vertex 0.13889256 0.2078674 -0.02
 endloop
endfacet
facet normal 0 0 -1
 outer loop
  vertex 1 1 -0.02
  vertex 0.13889256 0.2078674 -0.02
  vertex 0.095670864 0.23096988 -0.02
 endloop
endfacet
facet normal 0 0 -1
 outer loop
  vertex -0.13889256 0.2078674 -0.02
  vertex -0.17677669 0.17677669 -0.02
  vertex -1 1 -0.02
 endloop
endfacet
facet normal 0 0 -1
 outer loop
  vertex -0.095670864 0.23096988 -0.02
  vertex -0.13889256 0.2078674 -0.02
  vertex -1 1 -0.02
 endloop
endfacet
facet normal 0 0 -1
 outer loop
  vertex -1 1 -0.02
  vertex 1 1 -0.02
  vertex 0.095670864 0.23096988 -0.02
 endloop
endfacet
facet normal 0 0 -1
 outer loop
  vertex -1 1 -0.02
  vertex 0.095670864 0.23096988 -0.02
  vertex 0.04877258 0.24519631 -0.02
 endloop
endfacet
facet normal 0 0 -1
 outer loop
  vertex -0.04877258 0.24519631 -0.02
  vertex -0.095670864 0.23096988 -0.02
  vertex -1 1 -0.02
 endloop
endfacet
facet normal 0 0 -1
 outer loop
  vertex -1 1 -0.02
  vertex 0.04877258 0.24519631 -0.02
  vertex 0 0.25 -0.02
 endloop
endfacet
facet normal 0 0 -1
 outer loop
  vertex -1 1 -0.02
  vertex 0 0.25 -0.02
  vertex -0.04877258 0.24519631 -0.02
 endloop
endfacet
facet normal 0 -0 -1
 outer loop
  vertex 0.2078674 0.13889256 -0.02
  vertex 0.17677669 0.17677669 -0.02
  vertex 1 1 -0.02
 endloop
endfacet
facet normal 0 0 -1
 outer loop
  vertex -1 1 -0.02
  vertex -0.17677669 0.17677669 -0.02
  vertex -0.2078674 0.13889256 -0.02
 endloop
endfacet
facet normal 0 0 -1
 outer loop
  vertex -1 1 -0.02
  vertex -0.2078674 0.13889256 -0.02
  vertex -0.23096988 0.095670864 -0.02
 endloop
endfacet
facet normal -0 0 -1
 outer loop
  vertex 0.2078674 0.13889256 -0.02
  vertex 1 1 -0.02
  vertex 1 -1 -0.02
 endloop
endfacet
facet normal -0 -0 -1
 outer loop
  vertex 0.23096988 0.095670864 -0.02
  vertex 0.2078674 0.13889256 -0.02
  vertex 1 -1 -0.02
 endloop
endfacet
facet normal -0 -0 -1
 outer loop
  vertex -1 -1 -0.02
  vertex -1 1 -0.02
  vertex -0.23096988 0.095670864 -0.02
 endloop
endfacet
facet normal -0 0 -1
 outer loop
  vertex -1 -1 -0.02
  vertex -0.23096988 0.095670864 -0.02
  vertex -0.24519631 0.04877258 -0.02
 endloop
endfacet
facet normal -0 -0 -1
 outer loop
  vertex 0.24519631 0.04877258 -0.02
  vertex 0.23096988 0.095670864 -0.02
  vertex 1 -1 -0.02
 endloop
endfacet
facet normal -0 -0 -1
 outer loop
  vertex 0.25 0 -0.02
  vertex 0.24519631 0.04877258 -0.02
  vertex 1 -1 -0.02
 endloop
endfacet
facet normal -0 0 -1
 outer loop
  vertex -1 -1 -0.02
  vertex -0.24519631 0.04877258 -0.02
  vertex -0.25 0 -0.02
 endloop
endfacet
facet normal -0 0 -1
 outer loop
  vertex -1 -1 -0.02
  vertex -0.25 0 -0.02
  vertex -0.24519631 -0.04877258 -0.02
 endloop
endfacet
facet normal -0 0 -1
 outer loop
  vertex 0.24519631 -0.04877258 -0.02
  vertex 0.25 0 -0.02
  vertex 1 -1 -0.02
 endloop
endfacet
facet normal -0 0 -1
 outer loop
  vertex 0.23096988 -0.095670864 -0.02
  vertex 0.24519631 -0.04877258 -0.02
  vertex 1 -1 -0.02
 endloop
endfacet
facet normal -0 0 -1
 outer loop
  vertex -1 -1 -0.02
  vertex -0.24519631 -0.04877258 -0.02
  vertex -0.23096988 -0.095670864 -0.02
 endloop
endfacet
facet normal -0 0 -1
 outer loop
  vertex -1 -1 -0.02
  vertex -0.23096988 -0.095670864 -0.02
  vertex -0.2078674 -0.13889256 -0.02
 endloop
endfacet
facet normal -0 0 -1
 outer loop
  vertex 0.2078674 -0.13889256 -0.02
  vertex 0.23096988 -0.095670864 -0.02
  vertex 1 -1 -0.02
 endloop
endfacet
facet normal -0 0 -1
 outer loop
  vertex 0.17677669 -0.17677669 -0.02
  vertex 0.2078674 -0.13889256 -0.02
  vertex 1 -1 -0.02
 endloop
endfacet
facet normal -0 0 -1
 outer loop
  vertex -1 -1 -0.02
  vertex -0.2078674 -0.13889256 -0.02
  vertex -0.17677669 -0.17677669 -0.02
 endloop
endfacet
facet normal -0 0 -1
 outer loop
  vertex -1 -1 -0.02
  vertex -0.17677669 -0.17677669 -0.02
  vertex -0.13889256 -0.2078674 -0.02
 endloop
endfacet
facet normal -0 0 -1
 outer loop
  vertex 0.13889256 -0.2078674 -0.02
  vertex 0.17677669 -0.17677669 -0.02
  vertex 1 -1 -0.02
 endloop
endfacet
facet normal -0 0 -1
 outer loop
  vertex 0.095670864 -0.23096988 -0.02
  vertex 0.13889256 -0.2078674 -0.02
  vertex 1 -1 -0.02
 endloop
endfacet
facet normal 0 -0 -1
 outer loop
  vertex 1 -1 -0.02
  vertex -1 -1 -0.02
  vertex -0.13889256 -0.2078674 -0.02
 endloop
endfacet
facet normal -0 -0 -1
 outer loop
  vertex 1 -1 -0.02
  vertex -0.13889256 -0.2078674 -0.02
  vertex -0.095670864 -0.23096988 -0.02
 endloop
endfacet
facet normal -0 0 -1
 outer loop
  vertex 0.04877258 -0.24519631 -0.02
  vertex 0.095670864 -0.23096988 -0.02
  vertex 1 -1 -0.02
 endloop
endfacet
facet normal -0 0 -1
 outer loop
  vertex 0 -0.25 -0.02
  vertex 0.04877258 -0.24519631 -0.02
  vertex 1 -1 -0.02
 endloop
endfacet
facet normal -0 -0 -1
 outer loop
  vertex 1 -1 -0.02
  vertex -0.095670864 -0.23096988 -0.02
  vertex -0.04877258 -0.24519631 -0.02
 endloop
endfacet
facet normal -0 -0 -1
 outer loop
  vertex 1 -1 -0.02
  vertex -0.04877258 -0.24519631 -0.02
  vertex 0 -0.25 -0.02
 endloop
endfacet
facet normal -0 0 1
 outer loop
  vertex -0.13889256 -0.2078674 0.02
  vertex -0.17677669 -0.17677669 0.02
  vertex -1 -1 0.02
 endloop
endfacet
facet normal -0 0 1
 outer loop
  vertex 1 -1 0.02
  vertex 0.17677669 -0.17677669 0.02
  vertex 0.13889256 -0.2078674 0.02
 endloop
endfacet
facet normal -0 0 1
 outer loop
  vertex 1 -1 0.02
  vertex 0.13889256 -0.2078674 0.02
  vertex 0.095670864 -0.23096988 0.02
 endloop
endfacet
facet normal 0 -0 1
 outer loop
  vertex -0.13889256 -0.2078674 0.02
  vertex -1 -1 0.02
  vertex 1 -1 0.02
 endloop
endfacet
facet normal -0 -0 1
 outer loop
  vertex -0.095670864 -0.23096988 0.02
  vertex -0.13889256 -0.2078674 0.02
  vertex 1 -1 0.02
 endloop
endfacet
facet normal -0 0 1
 outer loop
  vertex 1 -1 0.02
  vertex 0.095670864 -0.23096988 0.02
  vertex 0.04877258 -0.24519631 0.02
 endloop
endfacet
facet normal -0 0 1
 outer loop
  vertex 1 -1 0.02
  vertex 0.04877258 -0.24519631 0.02
  vertex 0 -0.25 0.02
 endloop
endfacet
facet normal -0 -0 1
 outer loop
  vertex -0.04877258 -0.24519631 0.02
  vertex -0.095670864 -0.23096988 0.02
  vertex 1 -1 0.02
 endloop
endfacet
facet normal 0 0 1
 outer loop
  vertex 1 -1 0.02
  vertex 0 -0.25 0.02
  vertex -0.04877258 -0.24519631 0.02
 endloop
endfacet
facet normal 0 0 1
 outer loop
  vertex -1 -1 0.02
  vertex -0.17677669 -0.17677669 0.02
  vertex -0.2078674 -0.13889256 0.02
 endloop
endfacet
facet normal 0 0 1
 outer loop
  vertex -1 -1 0.02
  vertex -0.2078674 -0.13889256 0.02
  vertex -0.23096988 -0.095670864 0.02
 endloop
endfacet
facet normal 0 -0 1
 outer loop
  vertex 0.2078674 -0.13889256 0.02
  vertex 0.17677669 -0.17677669 0.02
  vertex 1 -1 0.02
 endloop
endfacet
facet normal 0 -0 1
 outer loop
  vertex 0.23096988 -0.095670864 0.02
  vertex 0.2078674 -0.13889256 0.02
  vertex 1 -1 0.02
 endloop
endfacet
facet normal 0 -0 1
 outer loop
  vertex -1 1 0.02
  vertex -1 -1 0.02
  vertex -0.23096988 -0.095670864 0.02
 endloop
endfacet
facet normal 0 0 1
 outer loop
  vertex -1 1 0.02
  vertex -0.23096988 -0.095670864 0.02
  vertex -0.24519631 -0.04877258 0.02
 endloop
endfacet
facet normal 0 0 1
 outer loop
  vertex 0.23096988 -0.095670864 0.02
  vertex 1 -1 0.02
  vertex 1 1 0.02
 endloop
endfacet
facet normal 0 -0 1
 outer loop
  vertex 0.24519631 -0.04877258 0.02
  vertex 0.23096988 -0.095670864 0.02
  vertex 1 1 0.02
 endloop
endfacet
facet normal 0 0 1
 outer loop
  vertex -1 1 0.02
  vertex -0.24519631 -0.04877258 0.02
  vertex -0.25 0 0.02
 endloop
endfacet
facet normal 0 0 1
 outer loop
  vertex -1 1 0.02
  vertex -0.25 0 0.02
  vertex -0.24519631 0.04877258 0.02
 endloop
endfacet
facet normal 0 -0 1
 outer loop
  vertex 0.25 0 0.02
  vertex 0.24519631 -0.04877258 0.02
  vertex 1 1 0.02
 endloop
endfacet
facet normal 0 0 1
 outer loop
  vertex 0.24519631 0.04877258 0.02
  vertex 0.25 0 0.02
  vertex 1 1 0.02
 endloop
endfacet
facet normal 0 0 1
 outer loop
  vertex -1 1 0.02
  vertex -0.24519631 0.04877258 0.02
  vertex -0.23096988 0.095670864 0.02
 endloop
endfacet
facet normal 0 0 1
 outer loop
  vertex -1 1 0.02
  vertex -0.23096988 0.095670864 0.02
  vertex -0.2078674 0.13889256 0.02
 endloop
endfacet
facet normal 0 0 1
 outer loop
  vertex 0.23096988 0.095670864 0.02
  vertex 0.24519631 0.04877258 0.02
  vertex 1 1 0.02
 endloop
endfacet
facet normal 0 0 1
 outer loop
  vertex 0.2078674 0.13889256 0.02
  vertex 0.23096988 0.095670864 0.02
  vertex 1 1 0.02
 endloop
endfacet
facet normal 0 0 1
 outer loop
  vertex -1 1 0.02
  vertex -0.2078674 0.13889256 0.02
  vertex -0.17677669 0.17677669 0.02
 endloop
endfacet
facet normal 0 0 1
 outer loop
  vertex -1 1 0.02
  vertex -0.17677669 0.17677669 0.02
  vertex -0.13889256 0.2078674 0.02
 endloop
endfacet
facet normal 0 0 1
 outer loop
  vertex 0.17677669 0.17677669 0.02
  vertex 0.2078674 0.13889256 0.02
  vertex 1 1 0.02
 endloop
endfacet
facet normal 0 0 1
 outer loop
  vertex 0.13889256 0.2078674 0.02
  vertex 0.17677669 0.17677669 0.02
  vertex 1 1 0.02
 endloop
endfacet
facet normal 0 -0 1
 outer loop
  vertex 1 1 0.02
  vertex -1 1 0.02
  vertex -0.13889256 0.2078674 0.02
 endloop
endfacet
facet normal 0 -0 1
 outer loop
  vertex 1 1 0.02
  vertex -0.13889256 0.2078674 0.02
  vertex -0.095670864 0.23096988 0.02
 endloop
endfacet
facet normal 0 0 1
 outer loop
  vertex 0.095670864 0.23096988 0.02
  vertex 0.13889256 0.2078674 0.02
  vertex 1 1 0.02
 endloop
endfacet
facet normal 0 0 1
 outer loop
  vertex 0.04877258 0.24519631 0.02
  vertex 0.095670864 0.23096988 0.02
  vertex 1 1 0.02
 endloop
endfacet
facet normal 0 -0 1
 outer loop
  vertex 1 1 0.02
  vertex -0.095670864 0.23096988 0.02
  vertex -0.04877258 0.24519631 0.02
 endloop
endfacet
facet normal 0 0 1
 outer loop
  vertex 0 0.25 0.02
  vertex 0.04877258 0.24519631 0.02
  vertex 1 1 0.02
 endloop
endfacet
facet normal 0 -0 1
 outer loop
  vertex 1 1 0.02
  vertex -0.04877258 0.24519631 0.02
  vertex 0 0.25 0.02
 endloop
endfacet
facet normal -0.09801729 -0.9951848 0
 outer loop
  vertex 0 0.25 0.02
  vertex 0 0.25 -0.02
  vertex 0.04877258 0.24519631 -0.02
 endloop
endfacet
facet normal -0.09801729 -0.9951848 -0
 outer loop
  vertex 0 0.25 0.02
  vertex 0.04877258 0.24519631 -0.02
  vertex 0.04877258 0.24519631 0.02
 endloop
endfacet
facet normal -0.29028466 -0.95694035 0
 outer loop
  vertex 0.04877258 0.24519631 0.02
  vertex 0.04877258 0.24519631 -0.02
  vertex 0.095670864 0.23096988 -0.02
 endloop
endfacet
facet normal -0.29028466 -0.95694035 -0
 outer loop
  vertex 0.04877258 0.24519631 0.02
  vertex 0.095670864 0.23096988 -0.02
  vertex 0.095670864 0.23096988 0.02
 endloop
endfacet
facet normal -0.47139674 -0.88192135 0
 outer loop
  vertex 0.095670864 0.23096988 0.02
  vertex 0.095670864 0.23096988 -0.02
  vertex 0.13889256 0.2078674 -0.02
 endloop
endfacet
facet normal -0.47139674 -0.88192135 -0
 outer loop
  vertex 0.095670864 0.23096988 0.02
  vertex 0.13889256 0.2078674 -0.02
  vertex 0.13889256 0.2078674 0.02
 endloop
endfacet
facet normal -0.63439333 -0.77301043 0
 outer loop
  vertex 0.13889256 0.2078674 0.02
  vertex 0.13889256 0.2078674 -0.02
  vertex 0.17677669 0.17677669 -0.02
 endloop
endfacet
facet normal -0.63439333 -0.77301043 -0
 outer loop
  vertex 0.13889256 0.2078674 0.02
  vertex 0.17677669 0.17677669 -0.02
  vertex 0.17677669 0.17677669 0.02
 endloop
endfacet
facet normal -0.77301043 -0.63439333 -0
 outer loop
  vertex 0.17677669 0.17677669 -0.02
  vertex 0.2078674 0.13889256 -0.02
  vertex 0.2078674 0.13889256 0.02
 endloop
endfacet
facet normal -0.77301043 -0.63439333 0
 outer loop
  vertex 0.17677669 0.17677669 -0.02
  vertex 0.2078674 0.13889256 0.02
  vertex 0.17677669 0.17677669 0.02
 endloop
endfacet
facet normal -0.88192135 -0.47139674 -0
 outer loop
  vertex 0.2078674 0.13889256 -0.02
  vertex 0.23096988 0.095670864 -0.02
  vertex 0.23096988 0.095670864 0.02
 endloop
endfacet
facet normal -0.88192135 -0.47139674 0
 outer loop
  vertex 0.2078674 0.13889256 -0.02
  vertex 0.23096988 0.095670864 0.02
  vertex 0.2078674 0.13889256 0.02
 endloop
endfacet
facet normal -0.95694035 -0.29028466 -0
 outer loop
  vertex 0.23096988 0.095670864 -0.02
  vertex 0.24519631 0.04877258 -0.02
  vertex 0.24519631 0.04877258 0.02
 endloop
endfacet
facet normal -0.95694035 -0.29028466 0
 outer loop
  vertex 0.23096988 0.095670864 -0.02
  vertex 0.24519631 0.04877258 0.02
  vertex 0.23096988 0.095670864 0.02
 endloop
endfacet
facet normal -0.9951848 -0.09801729 -0
 outer loop
  vertex 0.24519631 0.04877258 -0.02
  vertex 0.25 0 -0.02
  vertex 0.25 0 0.02
 endloop
endfacet
facet normal -0.9951848 -0.09801729 0
 outer loop
  vertex 0.24519631 0.04877258 -0.02
  vertex 0.25 0 0.02
  vertex 0.24519631 0.04877258 0.02
 endloop
endfacet
facet normal -0.9951848 0.09801729 0
 outer loop
  vertex 0.25 0 -0.02
  vertex 0.24519631 -0.04877258 -0.02
  vertex 0.24519631 -0.04877258 0.02
 endloop
endfacet
facet normal -0.9951848 0.09801729 0
 outer loop
  vertex 0.25 0 -0.02
  vertex 0.24519631 -0.04877258 0.02
  vertex 0.25 0 0.02
 endloop
endfacet
facet normal -0.95694035 0.29028466 0
 outer loop
  vertex 0.24519631 -0.04877258 -0.02
  vertex 0.23096988 -0.095670864 -0.02
  vertex 0.23096988 -0.095670864 0.02
 endloop
endfacet
facet normal -0.95694035 0.29028466 0
 outer loop
  vertex 0.24519631 -0.04877258 -0.02
  vertex 0.23096988 -0.095670864 0.02
  vertex 0.24519631 -0.04877258 0.02
 endloop
endfacet
facet normal -0.88192135 0.47139674 0
 outer loop
  vertex 0.23096988 -0.095670864 -0.02
  vertex 0.2078674 -0.13889256 -0.02
  vertex 0.2078674 -0.13889256 0.02
 endloop
endfacet
facet normal -0.88192135 0.47139674 0
 outer loop
  vertex 0.23096988 -0.095670864 -0.02
  vertex 0.2078674 -0.13889256 0.02
  vertex 0.23096988 -0.095670864 0.02
 endloop
endfacet
facet normal -0.77301043 0.63439333 0
 outer loop
  vertex 0.2078674 -0.13889256 -0.02
  vertex 0.17677669 -0.17677669 -0.02
  vertex 0.17677669 -0.17677669 0.02
 endloop
endfacet
facet normal -0.77301043 0.63439333 0
 outer loop
  vertex 0.2078674 -0.13889256 -0.02
  vertex 0.17677669 -0.17677669 0.02
  vertex 0.2078674 -0.13889256 0.02
 endloop
endfacet
facet normal -0.63439333 0.77301043 0
 outer loop
  vertex 0.17677669 -0.17677669 -0.02
  vertex 0.13889256 -0.2078674 -0.02
  vertex 0.13889256 -0.2078674 0.02
 endloop
endfacet
facet normal -0.63439333 0.77301043 0
 outer loop
  vertex 0.17677669 -0.17677669 -0.02
  vertex 0.13889256 -0.2078674 0.02
  vertex 0.17677669 -0.17677669 0.02
 endloop
endfacet
facet normal -0.47139674 0.88192135 0
 outer loop
  vertex 0.13889256 -0.2078674 -0.02
  vertex 0.095670864 -0.23096988 -0.02
  vertex 0.095670864 -0.23096988 0.02
 endloop
endfacet
facet normal -0.47139674 0.88192135 0
 outer loop
  vertex 0.13889256 -0.2078674 -0.02
  vertex 0.095670864 -0.23096988 0.02
  vertex 0.13889256 -0.2078674 0.02
 endloop
endfacet
facet normal -0.29028466 0.95694035 0
 outer loop
  vertex 0.095670864 -0.23096988 -0.02
  vertex 0.04877258 -0.24519631 -0.02
  vertex 0.04877258 -0.24519631 0.02
 endloop
endfacet
facet normal -0.29028466 0.95694035 0
 outer loop
  vertex 0.095670864 -0.23096988 -0.02
  vertex 0.04877258 -0.24519631 0.02
  vertex 0.095670864 -0.23096988 0.02
 endloop
endfacet
facet normal -0.09801729 0.9951848 0
 outer loop
  vertex 0.04877258 -0.24519631 -0.02
  vertex 0 -0.25 -0.02
  vertex 0 -0.25 0.02
 endloop
endfacet
facet normal -0.09801729 0.9951848 0
 outer loop
  vertex 0.04877258 -0.24519631 -0.02
  vertex 0 -0.25 0.02
  vertex 0.04877258 -0.24519631 0.02
 endloop
endfacet
facet normal 0.09801729 0.9951848 0
 outer loop
  vertex 0 -0.25 -0.02
  vertex -0.04877258 -0.24519631 -0.02
  vertex -0.04877258 -0.24519631 0.02
 endloop
endfacet
facet normal 0.09801729 0.9951848 0
 outer loop
  vertex 0 -0.25 -0.02
  vertex -0.04877258 -0.24519631 0.02
  vertex 0 -0.25 0.02
 endloop
endfacet
facet normal 0.29028466 0.95694035 0
 outer loop
  vertex -0.04877258 -0.24519631 -0.02
  vertex -0.095670864 -0.23096988 -0.02
  vertex -0.095670864 -0.23096988 0.02
 endloop
endfacet
facet normal 0.29028466 0.95694035 0
 outer loop
  vertex -0.04877258 -0.24519631 -0.02
  vertex -0.095670864 -0.23096988 0.02
  vertex -0.04877258 -0.24519631 0.02
 endloop
endfacet
facet normal 0.47139674 0.88192135 0
 outer loop
  vertex -0.095670864 -0.23096988 -0.02
  vertex -0.13889256 -0.2078674 -0.02
  vertex -0.13889256 -0.2078674 0.02
 endloop
endfacet
facet normal 0.47139674 0.88192135 0
 outer loop
  vertex -0.095670864 -0.23096988 -0.02
  vertex -0.13889256 -0.2078674 0.02
  vertex -0.095670864 -0.23096988 0.02
 endloop
endfacet
facet normal 0.63439333 0.77301043 0
 outer loop
  vertex -0.13889256 -0.2078674 -0.02
  vertex -0.17677669 -0.17677669 -0.02
  vertex -0.17677669 -0.17677669 0.02
 endloop
endfacet
facet normal 0.63439333 0.77301043 0
 outer loop
  vertex -0.13889256 -0.2078674 -0.02
  vertex -0.17677669 -0.17677669 0.02
  vertex -0.13889256 -0.2078674 0.02
 endloop
endfacet
facet normal 0.77301043 0.63439333 -0
 outer loop
  vertex -0.17677669 -0.17677669 0.02
  vertex -0.17677669 -0.17677669 -0.02
  vertex -0.2078674 -0.13889256 -0.02
 endloop
endfacet
facet normal 0.77301043 0.63439333 0
 outer loop
  vertex -0.17677669 -0.17677669 0.02
  vertex -0.2078674 -0.13889256 -0.02
  vertex -0.2078674 -0.13889256 0.02
 endloop
endfacet
facet normal 0.88192135 0.47139674 -0
 outer loop
  vertex -0.2078674 -0.13889256 0.02
  vertex -0.2078674 -0.13889256 -0.02
  vertex -0.23096988 -0.095670864 -0.02
 endloop
endfacet
facet normal 0.88192135 0.47139674 0
 outer loop
  vertex -0.2078674 -0.13889256 0.02
  vertex -0.23096988 -0.095670864 -0.02
  vertex -0.23096988 -0.095670864 0.02
 endloop
endfacet
facet normal 0.95694035 0.29028466 -0
 outer loop
  vertex -0.23096988 -0.095670864 0.02
  vertex -0.23096988 -0.095670864 -0.02
  vertex -0.24519631 -0.04877258 -0.02
 endloop
endfacet
facet normal 0.95694035 0.29028466 0
 outer loop
  vertex -0.23096988 -0.095670864 0.02
  vertex -0.24519631 -0.04877258 -0.02
  vertex -0.24519631 -0.04877258 0.02
 endloop
endfacet
facet normal 0.9951848 0.09801729 -0
 outer loop
  vertex -0.24519631 -0.04877258 0.02
  vertex -0.24519631 -0.04877258 -0.02
  vertex -0.25 0 -0.02
 endloop
endfacet
facet normal 0.9951848 0.09801729 0
 outer loop
  vertex -0.24519631 -0.04877258 0.02
  vertex -0.25 0 -0.02
  vertex -0.25 0 0.02
 endloop
endfacet
facet normal 0.9951848 -0.09801729 0
 outer loop
  vertex -0.25 0 0.02
  vertex -0.25 0 -0.02
  vertex -0.24519631 0.04877258 -0.02
 endloop
endfacet
facet normal 0.9951848 -0.09801729 0
 outer loop
  vertex -0.25 0 0.02
  vertex -0.24519631 0.04877258 -0.02
  vertex -0.24519631 0.04877258 0.02
 endloop
endfacet
facet normal 0.95694035 -0.29028466 0
 outer loop
  vertex -0.24519631 0.04877258 0.02
  vertex -0.24519631 0.04877258 -0.02
  vertex -0.23096988 0.095670864 -0.02
 endloop
endfacet
facet normal 0.95694035 -0.29028466 0
 outer loop
  vertex -0.24519631 0.04877258 0.02
  vertex -0.23096988 0.095670864 -0.02
  vertex -0.23096988 0.095670864 0.02
 endloop
endfacet
facet normal 0.88192135 -0.47139674 0
 outer loop
  vertex -0.23096988 0.095670864 0.02
  vertex -0.23096988 0.095670864 -0.02
  vertex -0.2078674 0.13889256 -0.02
 endloop
endfacet
facet normal 0.88192135 -0.47139674 0
 outer loop
  vertex -0.23096988 0.095670864 0.02
  vertex -0.2078674 0.13889256 -0.02
  vertex -0.2078674 0.13889256 0.02
 endloop
endfacet
facet normal 0.77301043 -0.63439333 0
 outer loop
  vertex -0.2078674 0.13889256 0.02
  vertex -0.2078674 0.13889256 -0.02
  vertex -0.17677669 0.17677669 -0.02
 endloop
endfacet
facet normal 0.77301043 -0.63439333 0
 outer loop
  vertex -0.2078674 0.13889256 0.02
  vertex -0.17677669 0.17677669 -0.02
  vertex -0.17677669 0.17677669 0.02
 endloop
endfacet
facet normal 0.63439333 -0.77301043 0
 outer loop
  vertex -0.17677669 0.17677669 0.02
  vertex -0.17677669 0.17677669 -0.02
  vertex -0.13889256 0.2078674 -0.02
 endloop
endfacet
facet normal 0.63439333 -0.77301043 0
 outer loop
  vertex -0.17677669 0.17677669 0.02
  vertex -0.13889256 0.2078674 -0.02
  vertex -0.13889256 0.2078674 0.02
 endloop
endfacet
facet normal 0.47139674 -0.88192135 0
 outer loop
  vertex -0.13889256 0.2078674 0.02
  vertex -0.13889256 0.2078674 -0.02
  vertex -0.095670864 0.23096988 -0.02
 endloop
endfacet
facet normal 0.47139674 -0.88192135 0
 outer loop
  vertex -0.13889256 0.2078674 0.02
  vertex -0.095670864 0.23096988 -0.02
  vertex -0.095670864 0.23096988 0.02
 endloop
endfacet
facet normal 0.29028466 -0.95694035 0
 outer loop
  vertex -0.095670864 0.23096988 0.02
  vertex -0.095670864 0.23096988 -0.02
  vertex -0.04877258 0.24519631 -0.02
 endloop
endfacet
facet normal 0.29028466 -0.95694035 0
 outer loop
  vertex -0.095670864 0.23096988 0.02
  vertex -0.04877258 0.24519631 -0.02
  vertex -0.04877258 0.24519631 0.02
 endloop
endfacet
facet normal 0.09801729 -0.9951848 0
 outer loop
  vertex -0.04877258 0.24519631 0.02
  vertex -0.04877258 0.24519631 -0.02
  vertex 0 0.25 -0.02
 endloop
endfacet
facet normal 0.09801729 -0.9951848 0
 outer loop
  vertex -0.04877258 0.24519631 0.02
  vertex 0 0.25 -0.02
  vertex 0 0.25 0.02
 endloop
endfacet
endsolid 
