solid 
facet normal -0 0 1
 outer loop
  vertex -0.055557024 -0.08314696 0.01
  vertex -0.07071068 -0.07071068 0.01
  vertex -1 -1 0.01
 endloop
endfacet
facet normal 0 0 1
 outer loop
  vertex -1 -1 0.01
  vertex 1 -1 0.01
  vertex 0.07071068 -0.07071068 0.01
 endloop
endfacet
facet normal -0 0 1
 outer loop
  vertex -1 -1 0.01
  vertex 0.07071068 -0.07071068 0.01
  vertex 0.055557024 -0.08314696 0.01
 endloop
endfacet
facet normal -0 0 1
 outer loop
  vertex -0.038268346 -0.09238795 0.01
  vertex -0.055557024 -0.08314696 0.01
  vertex -1 -1 0.01
 endloop
endfacet
facet normal -0 0 1
 outer loop
  vertex -0.019509032 -0.09807853 0.01
  vertex -0.038268346 -0.09238795 0.01
  vertex -1 -1 0.01
 endloop
endfacet
facet normal -0 0 1
 outer loop
  vertex -1 -1 0.01
  vertex 0.055557024 -0.08314696 0.01
  vertex 0.038268346 -0.09238795 0.01
 endloop
endfacet
facet normal -0 0 1
 outer loop
  vertex -1 -1 0.01
  vertex 0.038268346 -0.09238795 0.01
  vertex 0.019509032 -0.09807853 0.01
 endloop
endfacet
facet normal -0 0 1
 outer loop
  vertex 0 -0.1 0.01
  vertex -0.019509032 -0.09807853 0.01
  vertex -1 -1 0.01
 endloop
endfacet
facet normal -0 0 1
 outer loop
  vertex -1 -1 0.01
  vertex 0.019509032 -0.09807853 0.01
  vertex 0 -0.1 0.01
 endloop
endfacet
facet normal 0 0 1
 outer loop
  vertex 0.07071068 -0.07071068 0.01
  vertex 1 -1 0.01
  vertex 1 1 0.01
 endloop
endfacet
facet normal 0 -0 1
 outer loop
  vertex -1 1 0.01
  vertex -1 -1 0.01
  vertex -0.07071068 -0.07071068 0.01
 endloop
endfacet
facet normal 0 0 1
 outer loop
  vertex -1 1 0.01
  vertex -0.07071068 -0.07071068 0.01
  vertex -0.08314696 -0.055557024 0.01
 endloop
endfacet
facet normal 0 -0 1
 outer loop
  vertex 0.08314696 -0.055557024 0.01
  vertex 0.07071068 -0.07071068 0.01
  vertex 1 1 0.01
 endloop
endfacet
facet normal 0 -0 1
 outer loop
  vertex 0.09238795 -0.038268346 0.01
  vertex 0.08314696 -0.055557024 0.01
  vertex 1 1 0.01
 endloop
endfacet
facet normal 0 0 1
 outer loop
  vertex -1 1 0.01
  vertex -0.08314696 -0.055557024 0.01
  vertex -0.09238795 -0.038268346 0.01
 endloop
endfacet
facet normal 0 0 1
 outer loop
  vertex -1 1 0.01
  vertex -0.09238795 -0.038268346 0.01
  vertex -0.09807853 -0.019509032 0.01
 endloop
endfacet
facet normal 0 -0 1
 outer loop
  vertex 0.09807853 -0.019509032 0.01
  vertex 0.09238795 -0.038268346 0.01
  vertex 1 1 0.01
 endloop
endfacet
facet normal 0 -0 1
 outer loop
  vertex 0.1 0 0.01
  vertex 0.09807853 -0.019509032 0.01
  vertex 1 1 0.01
 endloop
endfacet
facet normal 0 0 1
 outer loop
  vertex -1 1 0.01
  vertex -0.09807853 -0.019509032 0.01
  vertex -0.1 0 0.01
 endloop
endfacet
facet normal 0 0 1
 outer loop
  vertex -1 1 0.01
  vertex -0.1 0 0.01
  vertex -0.09807853 0.019509032 0.01
 endloop
endfacet
facet normal 0 0 1
 outer loop
  vertex 0.09807853 0.019509032 0.01
  vertex 0.1 0 0.01
  vertex 1 1 0.01
 endloop
endfacet
facet normal 0 0 1
 outer loop
  vertex 0.09238795 0.038268346 0.01
  vertex 0.09807853 0.019509032 0.01
  vertex 1 1 0.01
 endloop
endfacet
facet normal 0 0 1
 outer loop
  vertex -1 1 0.01
  vertex -0.09807853 0.019509032 0.01
  vertex -0.09238795 0.038268346 0.01
 endloop
endfacet
facet normal 0 0 1
 outer loop
  vertex -1 1 0.01
  vertex -0.09238795 0.038268346 0.01
  vertex -0.08314696 0.055557024 0.01
 endloop
endfacet
facet normal 0 0 1
 outer loop
  vertex 0.08314696 0.055557024 0.01
  vertex 0.09238795 0.038268346 0.01
  vertex 1 1 0.01
 endloop
endfacet
facet normal 0 0 1
 outer loop
  vertex 0.07071068 0.07071068 0.01
  vertex 0.08314696 0.055557024 0.01
  vertex 1 1 0.01
 endloop
endfacet
facet normal 0 0 1
 outer loop
  vertex -1 1 0.01
  vertex -0.08314696 0.055557024 0.01
  vertex -0.07071068 0.07071068 0.01
 endloop
endfacet
facet normal 0 0 1
 outer loop
  vertex -1 1 0.01
  vertex -0.07071068 0.07071068 0.01
  vertex -0.055557024 0.08314696 0.01
 endloop
endfacet
facet normal -0 0 1
 outer loop
  vertex 0.07071068 0.07071068 0.01
  vertex 1 1 0.01
  vertex -1 1 0.01
 endloop
endfacet
facet normal 0 0 1
 outer loop
  vertex 0.055557024 0.08314696 0.01
  vertex 0.07071068 0.07071068 0.01
  vertex -1 1 0.01
 endloop
endfacet
facet normal 0 0 1
 outer loop
  vertex -1 1 0.01
  vertex -0.055557024 0.08314696 0.01
  vertex -0.038268346 0.09238795 0.01
 endloop
endfacet
facet normal 0 0 1
 outer loop
  vertex -1 1 0.01
  vertex -0.038268346 0.09238795 0.01
  vertex -0.019509032 0.09807853 0.01
 endloop
endfacet
facet normal 0 0 1
 outer loop
  vertex 0.038268346 0.09238795 0.01
  vertex 0.055557024 0.08314696 0.01
  vertex -1 1 0.01
 endloop
endfacet
facet normal 0 0 1
 outer loop
  vertex 0.019509032 0.09807853 0.01
  vertex 0.038268346 0.09238795 0.01
  vertex -1 1 0.01
 endloop
endfacet
facet normal 0 0 1
 outer loop
  vertex -1 1 0.01
  vertex -0.019509032 0.09807853 0.01
  vertex 0 0.1 0.01
 endloop
endfacet
facet normal 0 0 1
 outer loop
  vertex -1 1 0.01
  vertex 0 0.1 0.01
  vertex 0.019509032 0.09807853 0.01
 endloop
endfacet
facet normal 0 -1 0
 outer loop
  vertex 1 -1 -0.01
  vertex 1 -1 0.01
  vertex -1 -1 0.01
 endloop
endfacet
facet normal 0 -1 0
 outer loop
  vertex 1 -1 -0.01
  vertex -1 -1 0.01
  vertex -1 -1 -0.01
 endloop
endfacet
facet normal -1 -0 -0
 outer loop
  vertex -1 -1 -0.01
  vertex -1 -1 0.01
  vertex -1 1 0.01
 endloop
endfacet
facet normal -1 -0 0
 outer loop
  vertex -1 -1 -0.01
  vertex -1 1 0.01
  vertex -1 1 -0.01
 endloop
endfacet
facet normal -0 -0 -1
 outer loop
  vertex -0.07071068 0.07071068 -0.01
  vertex -1 1 -0.01
  vertex 1 1 -0.01
 endloop
endfacet
facet normal 0 0 -1
 outer loop
  vertex 1 1 -0.01
  vertex 0.07071068 0.07071068 -0.01
  vertex 0.055557024 0.08314696 -0.01
 endloop
endfacet
facet normal 0 0 -1
 outer loop
  vertex 1 1 -0.01
  vertex 0.055557024 0.08314696 -0.01
  vertex 0.038268346 0.09238795 -0.01
 endloop
endfacet
facet normal 0 -0 -1
 outer loop
  vertex -0.055557024 0.08314696 -0.01
  vertex -0.07071068 0.07071068 -0.01
  vertex 1 1 -0.01
 endloop
endfacet
facet normal 0 -0 -1
 outer loop
  vertex -0.038268346 0.09238795 -0.01
  vertex -0.055557024 0.08314696 -0.01
  vertex 1 1 -0.01
 endloop
endfacet
facet normal 0 0 -1
 outer loop
  vertex 1 1 -0.01
  vertex 0.038268346 0.09238795 -0.01
  vertex 0.019509032 0.09807853 -0.01
 endloop
endfacet
facet normal 0 0 -1
 outer loop
  vertex 1 1 -0.01
  vertex 0.019509032 0.09807853 -0.01
  vertex 0 0.1 -0.01
 endloop
endfacet
facet normal 0 -0 -1
 outer loop
  vertex -0.019509032 0.09807853 -0.01
  vertex -0.038268346 0.09238795 -0.01
  vertex 1 1 -0.01
 endloop
endfacet
facet normal 0 0 -1
 outer loop
  vertex 1 1 -0.01
  vertex 0 0.1 -0.01
  vertex -0.019509032 0.09807853 -0.01
 endloop
endfacet
facet normal 0 -0 -1
 outer loop
  vertex 0.08314696 0.055557024 -0.01
  vertex 0.07071068 0.07071068 -0.01
  vertex 1 1 -0.01
 endloop
endfacet
facet normal -0 -0 -1
 outer loop
  vertex -1 -1 -0.01
  vertex -1 1 -0.01
  vertex -0.07071068 0.07071068 -0.01
 endloop
endfacet
facet normal -0 0 -1
 outer loop
  vertex -1 -1 -0.01
  vertex -0.07071068 0.07071068 -0.01
  vertex -0.08314696 0.055557024 -0.01
 endloop
endfacet
facet normal -0 0 -1
 outer loop
  vertex 0.08314696 0.055557024 -0.01
  vertex 1 1 -0.01
  vertex 1 -1 -0.01
 endloop
endfacet
facet normal -0 -0 -1
 outer loop
  vertex 0.09238795 0.038268346 -0.01
  vertex 0.08314696 0.055557024 -0.01
  vertex 1 -1 -0.01
 endloop
endfacet
facet normal -0 0 -1
 outer loop
  vertex -1 -1 -0.01
  vertex -0.08314696 0.055557024 -0.01
  vertex -0.09238795 0.038268346 -0.01
 endloop
endfacet
facet normal -0 0 -1
 outer loop
  vertex -1 -1 -0.01
  vertex -0.09238795 0.038268346 -0.01
  vertex -0.09807853 0.019509032 -0.01
 endloop
endfacet
facet normal -0 -0 -1
 outer loop
  vertex 0.09807853 0.019509032 -0.01
  vertex 0.09238795 0.038268346 -0.01
  vertex 1 -1 -0.01
 endloop
endfacet
facet normal -0 -0 -1
 outer loop
  vertex 0.1 0 -0.01
  vertex 0.09807853 0.019509032 -0.01
  vertex 1 -1 -0.01
 endloop
endfacet
facet normal -0 0 -1
 outer loop
  vertex -1 -1 -0.01
  vertex -0.09807853 0.019509032 -0.01
  vertex -0.1 0 -0.01
 endloop
endfacet
facet normal -0 0 -1
 outer loop
  vertex -1 -1 -0.01
  vertex -0.1 0 -0.01
  vertex -0.09807853 -0.019509032 -0.01
 endloop
endfacet
facet normal -0 0 -1
 outer loop
  vertex 0.09807853 -0.019509032 -0.01
  vertex 0.1 0 -0.01
  vertex 1 -1 -0.01
 endloop
endfacet
facet normal -0 0 -1
 outer loop
  vertex 0.09238795 -0.038268346 -0.01
  vertex 0.09807853 -0.019509032 -0.01
  vertex 1 -1 -0.01
 endloop
endfacet
facet normal -0 0 -1
 outer loop
  vertex -1 -1 -0.01
  vertex -0.09807853 -0.019509032 -0.01
  vertex -0.09238795 -0.038268346 -0.01
 endloop
endfacet
facet normal -0 0 -1
 outer loop
  vertex -1 -1 -0.01
  vertex -0.09238795 -0.038268346 -0.01
  vertex -0.08314696 -0.055557024 -0.01
 endloop
endfacet
facet normal -0 0 -1
 outer loop
  vertex 0.08314696 -0.055557024 -0.01
  vertex 0.09238795 -0.038268346 -0.01
  vertex 1 -1 -0.01
 endloop
endfacet
facet normal -0 0 -1
 outer loop
  vertex 0.07071068 -0.07071068 -0.01
  vertex 0.08314696 -0.055557024 -0.01
  vertex 1 -1 -0.01
 endloop
endfacet
facet normal -0 0 -1
 outer loop
  vertex -1 -1 -0.01
  vertex -0.08314696 -0.055557024 -0.01
  vertex -0.07071068 -0.07071068 -0.01
 endloop
endfacet
facet normal -0 0 -1
 outer loop
  vertex -1 -1 -0.01
  vertex -0.07071068 -0.07071068 -0.01
  vertex -0.055557024 -0.08314696 -0.01
 endloop
endfacet
facet normal 0 0 -1
 outer loop
  vertex 0.07071068 -0.07071068 -0.01
  vertex 1 -1 -0.01
  vertex -1 -1 -0.01
 endloop
endfacet
facet normal -0 0 -1
 outer loop
  vertex 0.055557024 -0.08314696 -0.01
  vertex 0.07071068 -0.07071068 -0.01
  vertex -1 -1 -0.01
 endloop
endfacet
facet normal -0 0 -1
 outer loop
  vertex -1 -1 -0.01
  vertex -0.055557024 -0.08314696 -0.01
  vertex -0.038268346 -0.09238795 -0.01
 endloop
endfacet
facet normal -0 0 -1
 outer loop
  vertex -1 -1 -0.01
  vertex -0.038268346 -0.09238795 -0.01
  vertex -0.019509032 -0.09807853 -0.01
 endloop
endfacet
facet normal -0 0 -1
 outer loop
  vertex 0.038268346 -0.09238795 -0.01
  vertex 0.055557024 -0.08314696 -0.01
  vertex -1 -1 -0.01
 endloop
endfacet
facet normal -0 0 -1
 outer loop
  vertex 0.019509032 -0.09807853 -0.01
  vertex 0.038268346 -0.09238795 -0.01
  vertex -1 -1 -0.01
 endloop
endfacet
facet normal -0 0 -1
 outer loop
  vertex -1 -1 -0.01
  vertex -0.019509032 -0.09807853 -0.01
  vertex 0 -0.1 -0.01
 endloop
endfacet
facet normal 0 0 -1
 outer loop
  vertex -1 -1 -0.01
  vertex 0 -0.1 -0.01
  vertex 0.019509032 -0.09807853 -0.01
 endloop
endfacet
facet normal 1 -0 0
 outer loop
  vertex 1 1 -0.01
  vertex 1 1 0.01
  vertex 1 -1 0.01
 endloop
endfacet
facet normal 1 -0 0
 outer loop
  vertex 1 1 -0.01
  vertex 1 -1 0.01
  vertex 1 -1 -0.01
 endloop
endfacet
facet normal 0 1 0
 outer loop
  vertex -1 1 -0.01
  vertex -1 1 0.01
  vertex 1 1 0.01
 endloop
endfacet
facet normal 0 1 -0
 outer loop
  vertex -1 1 -0.01
  vertex 1 1 0.01
  vertex 1 1 -0.01
 endloop
endfacet
facet normal -0.09801729 -0.9951848 -0
 outer loop
  vertex 0.019509032 0.09807853 -0.01
  vertex 0.019509032 0.09807853 0.01
  vertex 0 0.1 0.01
 endloop
endfacet
facet normal -0.09801729 -0.9951848 0
 outer loop
  vertex 0.019509032 0.09807853 -0.01
  vertex 0 0.1 0.01
  vertex 0 0.1 -0.01
 endloop
endfacet
facet normal -0.29028463 -0.95694035 -0
 outer loop
  vertex 0.038268346 0.09238795 -0.01
  vertex 0.038268346 0.09238795 0.01
  vertex 0.019509032 0.09807853 0.01
 endloop
endfacet
facet normal -0.29028463 -0.95694035 0
 outer loop
  vertex 0.038268346 0.09238795 -0.01
  vertex 0.019509032 0.09807853 0.01
  vertex 0.019509032 0.09807853 -0.01
 endloop
endfacet
facet normal -0.47139683 -0.88192123 -0
 outer loop
  vertex 0.055557024 0.08314696 -0.01
  vertex 0.055557024 0.08314696 0.01
  vertex 0.038268346 0.09238795 0.01
 endloop
endfacet
facet normal -0.47139683 -0.88192123 0
 outer loop
  vertex 0.055557024 0.08314696 -0.01
  vertex 0.038268346 0.09238795 0.01
  vertex 0.038268346 0.09238795 -0.01
 endloop
endfacet
facet normal -0.6343931 -0.7730107 -0
 outer loop
  vertex 0.07071068 0.07071068 -0.01
  vertex 0.07071068 0.07071068 0.01
  vertex 0.055557024 0.08314696 0.01
 endloop
endfacet
facet normal -0.6343931 -0.7730107 0
 outer loop
  vertex 0.07071068 0.07071068 -0.01
  vertex 0.055557024 0.08314696 0.01
  vertex 0.055557024 0.08314696 -0.01
 endloop
endfacet
facet normal -0.7730107 -0.6343931 0
 outer loop
  vertex 0.08314696 0.055557024 0.01
  vertex 0.07071068 0.07071068 0.01
  vertex 0.07071068 0.07071068 -0.01
 endloop
endfacet
facet normal -0.7730107 -0.6343931 0
 outer loop
  vertex 0.08314696 0.055557024 0.01
  vertex 0.07071068 0.07071068 -0.01
  vertex 0.08314696 0.055557024 -0.01
 endloop
endfacet
facet normal -0.88192123 -0.47139683 0
 outer loop
  vertex 0.09238795 0.038268346 0.01
  vertex 0.08314696 0.055557024 0.01
  vertex 0.08314696 0.055557024 -0.01
 endloop
endfacet
facet normal -0.88192123 -0.47139683 0
 outer loop
  vertex 0.09238795 0.038268346 0.01
  vertex 0.08314696 0.055557024 -0.01
  vertex 0.09238795 0.038268346 -0.01
 endloop
endfacet
facet normal -0.95694035 -0.29028463 0
 outer loop
  vertex 0.09807853 0.019509032 0.01
  vertex 0.09238795 0.038268346 0.01
  vertex 0.09238795 0.038268346 -0.01
 endloop
endfacet
facet normal -0.95694035 -0.29028463 0
 outer loop
  vertex 0.09807853 0.019509032 0.01
  vertex 0.09238795 0.038268346 -0.01
  vertex 0.09807853 0.019509032 -0.01
 endloop
endfacet
facet normal -0.9951848 -0.09801729 0
 outer loop
  vertex 0.1 0 0.01
  vertex 0.09807853 0.019509032 0.01
  vertex 0.09807853 0.019509032 -0.01
 endloop
endfacet
facet normal -0.9951848 -0.09801729 0
 outer loop
  vertex 0.1 0 0.01
  vertex 0.09807853 0.019509032 -0.01
  vertex 0.1 0 -0.01
 endloop
endfacet
facet normal -0.9951848 0.09801729 0
 outer loop
  vertex 0.09807853 -0.019509032 0.01
  vertex 0.1 0 0.01
  vertex 0.1 0 -0.01
 endloop
endfacet
facet normal -0.9951848 0.09801729 0
 outer loop
  vertex 0.09807853 -0.019509032 0.01
  vertex 0.1 0 -0.01
  vertex 0.09807853 -0.019509032 -0.01
 endloop
endfacet
facet normal -0.95694035 0.29028463 0
 outer loop
  vertex 0.09238795 -0.038268346 0.01
  vertex 0.09807853 -0.019509032 0.01
  vertex 0.09807853 -0.019509032 -0.01
 endloop
endfacet
facet normal -0.95694035 0.29028463 0
 outer loop
  vertex 0.09238795 -0.038268346 0.01
  vertex 0.09807853 -0.019509032 -0.01
  vertex 0.09238795 -0.038268346 -0.01
 endloop
endfacet
facet normal -0.88192123 0.47139683 0
 outer loop
  vertex 0.08314696 -0.055557024 0.01
  vertex 0.09238795 -0.038268346 0.01
  vertex 0.09238795 -0.038268346 -0.01
 endloop
endfacet
facet normal -0.88192123 0.47139683 0
 outer loop
  vertex 0.08314696 -0.055557024 0.01
  vertex 0.09238795 -0.038268346 -0.01
  vertex 0.08314696 -0.055557024 -0.01
 endloop
endfacet
facet normal -0.7730107 0.6343931 0
 outer loop
  vertex 0.07071068 -0.07071068 0.01
  vertex 0.08314696 -0.055557024 0.01
  vertex 0.08314696 -0.055557024 -0.01
 endloop
endfacet
facet normal -0.7730107 0.6343931 0
 outer loop
  vertex 0.07071068 -0.07071068 0.01
  vertex 0.08314696 -0.055557024 -0.01
  vertex 0.07071068 -0.07071068 -0.01
 endloop
endfacet
facet normal -0.6343931 0.7730107 0
 outer loop
  vertex 0.055557024 -0.08314696 0.01
  vertex 0.07071068 -0.07071068 0.01
  vertex 0.07071068 -0.07071068 -0.01
 endloop
endfacet
facet normal -0.6343931 0.7730107 0
 outer loop
  vertex 0.055557024 -0.08314696 0.01
  vertex 0.07071068 -0.07071068 -0.01
  vertex 0.055557024 -0.08314696 -0.01
 endloop
endfacet
facet normal -0.47139683 0.88192123 0
 outer loop
  vertex 0.038268346 -0.09238795 0.01
  vertex 0.055557024 -0.08314696 0.01
  vertex 0.055557024 -0.08314696 -0.01
 endloop
endfacet
facet normal -0.47139683 0.88192123 0
 outer loop
  vertex 0.038268346 -0.09238795 0.01
  vertex 0.055557024 -0.08314696 -0.01
  vertex 0.038268346 -0.09238795 -0.01
 endloop
endfacet
facet normal -0.29028463 0.95694035 0
 outer loop
  vertex 0.019509032 -0.09807853 0.01
  vertex 0.038268346 -0.09238795 0.01
  vertex 0.038268346 -0.09238795 -0.01
 endloop
endfacet
facet normal -0.29028463 0.95694035 0
 outer loop
  vertex 0.019509032 -0.09807853 0.01
  vertex 0.038268346 -0.09238795 -0.01
  vertex 0.019509032 -0.09807853 -0.01
 endloop
endfacet
facet normal -0.09801729 0.9951848 0
 outer loop
  vertex 0 -0.1 0.01
  vertex 0.019509032 -0.09807853 0.01
  vertex 0.019509032 -0.09807853 -0.01
 endloop
endfacet
facet normal -0.09801729 0.9951848 0
 outer loop
  vertex 0 -0.1 0.01
  vertex 0.019509032 -0.09807853 -0.01
  vertex 0 -0.1 -0.01
 endloop
endfacet
facet normal 0.09801729 0.9951848 -0
 outer loop
  vertex -0.019509032 -0.09807853 0.01
  vertex 0 -0.1 0.01
  vertex 0 -0.1 -0.01
 endloop
endfacet
facet normal 0.09801729 0.9951848 0
 outer loop
  vertex -0.019509032 -0.09807853 0.01
  vertex 0 -0.1 -0.01
  vertex -0.019509032 -0.09807853 -0.01
 endloop
endfacet
facet normal 0.29028463 0.95694035 -0
 outer loop
  vertex -0.038268346 -0.09238795 0.01
  vertex -0.019509032 -0.09807853 0.01
  vertex -0.019509032 -0.09807853 -0.01
 endloop
endfacet
facet normal 0.29028463 0.95694035 0
 outer loop
  vertex -0.038268346 -0.09238795 0.01
  vertex -0.019509032 -0.09807853 -0.01
  vertex -0.038268346 -0.09238795 -0.01
 endloop
endfacet
facet normal 0.47139683 0.88192123 -0
 outer loop
  vertex -0.055557024 -0.08314696 0.01
  vertex -0.038268346 -0.09238795 0.01
  vertex -0.038268346 -0.09238795 -0.01
 endloop
endfacet
facet normal 0.47139683 0.88192123 0
 outer loop
  vertex -0.055557024 -0.08314696 0.01
  vertex -0.038268346 -0.09238795 -0.01
  vertex -0.055557024 -0.08314696 -0.01
 endloop
endfacet
facet normal 0.6343931 0.7730107 -0
 outer loop
  vertex -0.07071068 -0.07071068 0.01
  vertex -0.055557024 -0.08314696 0.01
  vertex -0.055557024 -0.08314696 -0.01
 endloop
endfacet
facet normal 0.6343931 0.7730107 0
 outer loop
  vertex -0.07071068 -0.07071068 0.01
  vertex -0.055557024 -0.08314696 -0.01
  vertex -0.07071068 -0.07071068 -0.01
 endloop
endfacet
facet normal 0.7730107 0.6343931 0
 outer loop
  vertex -0.08314696 -0.055557024 -0.01
  vertex -0.08314696 -0.055557024 0.01
  vertex -0.07071068 -0.07071068 0.01
 endloop
endfacet
facet normal 0.7730107 0.6343931 -0
 outer loop
  vertex -0.08314696 -0.055557024 -0.01
  vertex -0.07071068 -0.07071068 0.01
  vertex -0.07071068 -0.07071068 -0.01
 endloop
endfacet
facet normal 0.88192123 0.47139683 0
 outer loop
  vertex -0.09238795 -0.038268346 -0.01
  vertex -0.09238795 -0.038268346 0.01
  vertex -0.08314696 -0.055557024 0.01
 endloop
endfacet
facet normal 0.88192123 0.47139683 -0
 outer loop
  vertex -0.09238795 -0.038268346 -0.01
  vertex -0.08314696 -0.055557024 0.01
  vertex -0.08314696 -0.055557024 -0.01
 endloop
endfacet
facet normal 0.95694035 0.29028463 0
 outer loop
  vertex -0.09807853 -0.019509032 -0.01
  vertex -0.09807853 -0.019509032 0.01
  vertex -0.09238795 -0.038268346 0.01
 endloop
endfacet
facet normal 0.95694035 0.29028463 -0
 outer loop
  vertex -0.09807853 -0.019509032 -0.01
  vertex -0.09238795 -0.038268346 0.01
  vertex -0.09238795 -0.038268346 -0.01
 endloop
endfacet
facet normal 0.9951848 0.09801729 0
 outer loop
  vertex -0.1 0 -0.01
  vertex -0.1 0 0.01
  vertex -0.09807853 -0.019509032 0.01
 endloop
endfacet
facet normal 0.9951848 0.09801729 -0
 outer loop
  vertex -0.1 0 -0.01
  vertex -0.09807853 -0.019509032 0.01
  vertex -0.09807853 -0.019509032 -0.01
 endloop
endfacet
facet normal 0.9951848 -0.09801729 0
 outer loop
  vertex -0.09807853 0.019509032 -0.01
  vertex -0.09807853 0.019509032 0.01
  vertex -0.1 0 0.01
 endloop
endfacet
facet normal 0.9951848 -0.09801729 0
 outer loop
  vertex -0.09807853 0.019509032 -0.01
  vertex -0.1 0 0.01
  vertex -0.1 0 -0.01
 endloop
endfacet
facet normal 0.95694035 -0.29028463 0
 outer loop
  vertex -0.09238795 0.038268346 -0.01
  vertex -0.09238795 0.038268346 0.01
  vertex -0.09807853 0.019509032 0.01
 endloop
endfacet
facet normal 0.95694035 -0.29028463 0
 outer loop
  vertex -0.09238795 0.038268346 -0.01
  vertex -0.09807853 0.019509032 0.01
  vertex -0.09807853 0.019509032 -0.01
 endloop
endfacet
facet normal 0.88192123 -0.47139683 0
 outer loop
  vertex -0.08314696 0.055557024 -0.01
  vertex -0.08314696 0.055557024 0.01
  vertex -0.09238795 0.038268346 0.01
 endloop
endfacet
facet normal 0.88192123 -0.47139683 0
 outer loop
  vertex -0.08314696 0.055557024 -0.01
  vertex -0.09238795 0.038268346 0.01
  vertex -0.09238795 0.038268346 -0.01
 endloop
endfacet
facet normal 0.7730107 -0.6343931 0
 outer loop
  vertex -0.07071068 0.07071068 -0.01
  vertex -0.07071068 0.07071068 0.01
  vertex -0.08314696 0.055557024 0.01
 endloop
endfacet
facet normal 0.7730107 -0.6343931 0
 outer loop
  vertex -0.07071068 0.07071068 -0.01
  vertex -0.08314696 0.055557024 0.01
  vertex -0.08314696 0.055557024 -0.01
 endloop
endfacet
facet normal 0.6343931 -0.7730107 0
 outer loop
  vertex -0.055557024 0.08314696 -0.01
  vertex -0.055557024 0.08314696 0.01
  vertex -0.07071068 0.07071068 0.01
 endloop
endfacet
facet normal 0.6343931 -0.7730107 0
 outer loop
  vertex -0.055557024 0.08314696 -0.01
  vertex -0.07071068 0.07071068 0.01
  vertex -0.07071068 0.07071068 -0.01
 endloop
endfacet
facet normal 0.47139683 -0.88192123 0
 outer loop
  vertex -0.038268346 0.09238795 -0.01
  vertex -0.038268346 0.09238795 0.01
  vertex -0.055557024 0.08314696 0.01
 endloop
endfacet
facet normal 0.47139683 -0.88192123 0
 outer loop
  vertex -0.038268346 0.09238795 -0.01
  vertex -0.055557024 0.08314696 0.01
  vertex -0.055557024 0.08314696 -0.01
 endloop
endfacet
facet normal 0.29028463 -0.95694035 0
 outer loop
  vertex -0.019509032 0.09807853 -0.01
  vertex -0.019509032 0.09807853 0.01
  vertex -0.038268346 0.09238795 0.01
 endloop
endfacet
facet normal 0.29028463 -0.95694035 0
 outer loop
  vertex -0.019509032 0.09807853 -0.01
  vertex -0.038268346 0.09238795 0.01
  vertex -0.038268346 0.09238795 -0.01
 endloop
endfacet
facet normal 0.09801729 -0.9951848 0
 outer loop
  vertex 0 0.1 -0.01
  vertex 0 0.1 0.01
  vertex -0.019509032 0.09807853 0.01
 endloop
endfacet
facet normal 0.09801729 -0.9951848 0
 outer loop
  vertex 0 0.1 -0.01
  vertex -0.019509032 0.09807853 0.01
  vertex -0.019509032 0.09807853 -0.01
 endloop
endfacet
endsolid 
